<?xml version="1.0" encoding="UTF-8" standalone="no"?>
<!DOCTYPE svg PUBLIC "-//W3C//DTD SVG 1.1//EN" "http://www.w3.org/Graphics/SVG/1.1/DTD/svg11.dtd">
<svg xmlns="http://www.w3.org/2000/svg" version="1.1" viewBox="0 0 1153 1091">
<path fill="#4f89e2" d="M 742.56,0.00 Q 745.19,0.00 747.81,0.00 Q 748.18,17.09 747.95,34.18 A 0.65,0.61 85.1 0 1 747.46,34.80 Q 745.00,35.35 742.55,34.81 A 0.64,0.63 -83.8 0 1 742.06,34.19 Q 741.95,17.84 742.00,1.50 Q 742.00,0.31 742.56,0.00 Z"/>
<rect fill="#4f89e2" x="742.00" y="65.00" width="6.00" height="48.00" rx="0.59"/>
<rect fill="#4f89e2" x="742.00" y="143.00" width="6.00" height="48.00" rx="0.59"/>
<rect fill="#4f89e2" x="742.00" y="230.00" width="6.00" height="48.00" rx="0.52"/>
<rect fill="#4f89e2" x="742.00" y="308.00" width="6.00" height="48.00" rx="0.59"/>
<path fill="#4f89e2" d="M 894.50,508.46 L 894.71,534.25 Q 894.11,540.88 894.79,547.50 Q 894.28,557.24 894.56,567.00 Q 894.60,568.67 896.50,568.46 Q 895.71,568.35 895.02,568.60 A 0.78,0.71 81.0 0 0 894.55,569.32 L 894.75,586.04 L 895.04,611.25 Q 894.41,632.12 895.03,654.13 A 1.03,0.96 -0.2 0 0 896.04,655.06 L 901.32,655.13 A 0.55,0.51 -90.0 0 1 901.83,655.68 L 901.83,679.31 A 0.54,0.52 -1.1 0 1 901.31,679.83 Q 890.40,680.13 879.49,680.01 Q 879.41,680.00 878.51,680.07 Q 876.59,680.20 877.04,677.79 A 1.52,1.52 -85.8 0 0 875.49,675.99 Q 868.43,676.25 861.48,676.16 Q 848.10,676.00 848.01,676.00 Q 554.50,676.00 260.66,676.00 A 0.66,0.66 -0.0 0 0 260.00,676.66 L 260.00,683.34 A 0.66,0.66 -0.1 0 1 259.34,684.00 L 235.81,684.00 A 0.81,0.81 0.1 0 1 235.00,683.19 L 235.00,659.66 A 0.66,0.66 -0.5 0 1 235.66,659.00 L 242.48,659.00 A 0.52,0.52 0.0 0 0 243.00,658.48 L 243.00,631.52 A 0.52,0.52 0.0 0 0 242.48,631.00 L 199.66,631.00 A 0.66,0.66 0.5 0 1 199.00,630.34 L 199.00,625.66 A 0.66,0.66 -0.5 0 1 199.66,625.00 L 242.36,625.00 A 0.69,0.66 -89.6 0 0 243.02,624.32 L 243.25,610.29 L 248.75,610.04 L 248.99,658.10 A 0.97,0.94 0.3 0 0 249.94,659.03 L 259.32,659.15 A 0.54,0.54 77.3 0 1 259.85,659.68 L 259.98,669.32 A 0.68,0.66 -90.0 0 0 260.64,670.00 L 876.43,669.94 A 0.52,0.50 0.0 0 0 876.95,669.44 L 876.99,656.02 A 1.02,1.01 -90.0 0 1 878.00,655.00 L 887.35,655.00 A 0.67,0.66 -89.6 0 0 888.01,654.34 L 888.21,612.25 Q 888.75,611.78 888.75,610.75 Q 888.75,599.75 888.75,588.75 Q 888.75,587.37 888.00,587.21 L 888.00,568.54 Q 888.50,568.20 888.50,567.00 Q 888.50,558.00 888.50,549.00 Q 888.50,547.83 887.96,547.50 L 888.04,532.75 Q 888.50,531.93 888.50,529.75 Q 888.52,518.76 888.00,507.79 L 888.00,446.69 A 0.69,0.69 0.1 0 0 887.31,446.00 L 878.66,446.00 A 0.66,0.66 89.9 0 1 878.00,445.34 L 878.00,434.66 A 0.66,0.66 90.0 0 0 877.34,434.00 L 260.65,434.00 A 0.71,0.68 -89.6 0 0 259.97,434.70 L 259.85,442.31 A 0.54,0.54 -0.5 0 1 259.32,442.85 L 249.71,442.98 A 0.72,0.69 -0.4 0 0 249.00,443.67 L 249.00,478.71 L 243.25,478.71 L 243.01,443.90 A 0.91,0.89 89.7 0 0 242.12,443.00 L 235.66,443.00 A 0.66,0.66 89.8 0 1 235.00,442.34 L 235.00,418.81 A 0.81,0.81 -45.0 0 1 235.81,418.00 L 259.34,418.00 A 0.66,0.66 45.0 0 1 260.00,418.66 L 260.00,427.48 A 0.52,0.52 0.0 0 0 260.52,428.00 L 741.08,428.00 A 0.92,0.92 90.0 0 0 742.00,427.08 L 742.00,386.66 A 0.66,0.66 -89.9 0 1 742.66,386.00 L 747.34,386.00 A 0.66,0.66 89.9 0 1 748.00,386.66 L 748.00,427.48 A 0.52,0.52 0.0 0 0 748.52,428.00 L 877.08,428.00 A 0.92,0.92 90.0 0 0 878.00,427.08 L 878.00,422.26 A 1.26,1.26 45.0 0 1 879.26,421.00 L 902.01,421.00 A 0.99,0.99 45.0 0 1 903.00,421.99 L 903.00,445.23 A 0.77,0.77 -45.0 0 1 902.23,446.00 L 894.97,446.00 A 0.72,0.71 0.0 0 0 894.25,446.71 L 894.50,508.46 ZM 254.9876,423.4069 A 0.42 0.42 0.0 0 0 254.5669,422.9877 L 240.4069,423.0124 A 0.42 0.42 0.0 0 0 239.9877,423.4331 L 240.0124,437.5931 A 0.42 0.42 0.0 0 0 240.4331,438.0123 L 254.5931,437.9876 A 0.42 0.42 0.0 0 0 255.0123,437.5669 L 254.9876,423.4069 ZM 897.9880,426.6269 A 0.64 0.64 0.0 0 0 897.3469,425.9880 L 883.6269,426.0120 A 0.64 0.64 0.0 0 0 882.9880,426.6531 L 883.0120,440.3731 A 0.64 0.64 0.0 0 0 883.6531,441.0120 L 897.3731,440.9880 A 0.64 0.64 0.0 0 0 898.0120,440.3469 L 897.9880,426.6269 ZM 896.9978,660.5069 A 0.52 0.52 0.0 0 0 896.4769,659.9878 L 882.5169,660.0122 A 0.52 0.52 0.0 0 0 881.9978,660.5331 L 882.0222,674.4931 A 0.52 0.52 0.0 0 0 882.5431,675.0122 L 896.5031,674.9878 A 0.52 0.52 0.0 0 0 897.0222,674.4669 L 896.9978,660.5069 ZM 255.00,664.31 A 0.31 0.31 0.0 0 0 254.69,664.00 L 240.31,664.00 A 0.31 0.31 0.0 0 0 240.00,664.31 L 240.00,678.69 A 0.31 0.31 0.0 0 0 240.31,679.00 L 254.69,679.00 A 0.31 0.31 0.0 0 0 255.00,678.69 L 255.00,664.31 Z"/>
<path fill="#000000" d="M 272.44,402.53 L 271.32,402.47 A 0.70,0.66 -4.3 0 1 270.68,401.95 Q 270.27,400.11 271.69,400.57 A 1.02,1.02 8.2 0 0 273.03,399.57 Q 272.82,392.99 278.19,393.96 A 0.94,0.87 -4.6 0 1 278.89,394.51 Q 279.59,396.36 277.14,395.64 A 1.44,1.43 -75.5 0 0 275.35,396.70 Q 274.49,400.50 276.47,400.58 Q 277.94,400.65 278.01,400.67 Q 279.06,401.08 278.34,402.28 A 0.69,0.60 22.7 0 1 277.59,402.53 Q 274.69,401.68 274.88,404.39 Q 274.99,406.01 274.99,406.12 Q 274.97,410.03 275.13,413.94 Q 275.20,415.66 273.51,414.91 A 0.80,0.76 -78.7 0 1 273.06,414.19 L 272.94,403.06 A 0.53,0.53 1.7 0 0 272.44,402.53 Z"/>
<path fill="#000000" d="M 358.43,398.27 Q 357.22,398.18 356.02,398.07 Q 354.92,397.98 355.28,397.23 A 1.14,0.76 1.9 0 1 356.05,396.75 Q 357.87,396.44 359.00,395.05 Q 359.61,394.30 360.11,394.10 Q 361.57,393.52 361.38,395.09 Q 361.24,396.19 361.24,396.42 Q 361.13,405.30 361.42,414.19 A 0.78,0.68 79.4 0 1 360.99,414.92 Q 360.25,415.22 359.50,414.92 A 0.82,0.70 -80.6 0 1 359.06,414.19 L 358.94,398.81 A 0.55,0.54 2.3 0 0 358.43,398.27 Z"/>
<path fill="#000000" d="M 284.46,401.87 Q 286.15,400.60 288.26,400.31 A 0.92,0.88 -23.8 0 1 289.09,400.61 Q 290.47,402.20 288.00,402.52 Q 285.76,402.81 284.72,404.44 Q 284.07,405.47 284.04,407.83 Q 283.99,411.13 283.95,414.43 A 0.57,0.51 -89.4 0 1 283.44,414.99 L 282.31,414.99 A 0.55,0.50 90.0 0 1 281.81,414.44 L 281.75,401.76 A 1.19,1.05 72.0 0 1 282.12,400.90 Q 283.65,399.59 284.00,401.69 A 0.29,0.29 -23.5 0 0 284.46,401.87 Z"/>
<path fill="#000000" d="M 300.29,413.87 Q 296.84,416.38 293.47,414.45 Q 291.85,413.52 291.40,411.84 Q 290.82,409.66 292.34,408.21 Q 293.33,407.27 296.49,406.67 Q 298.52,406.29 300.46,405.61 A 0.46,0.46 -22.3 0 0 300.73,404.98 Q 298.32,400.09 293.94,403.74 A 0.97,0.80 -51.9 0 1 293.09,403.93 Q 291.52,403.37 292.73,402.09 Q 293.21,401.59 294.02,401.21 Q 299.05,398.85 301.74,402.58 Q 303.00,404.34 303.00,407.73 Q 303.00,410.74 303.00,413.75 Q 303.00,415.25 301.80,415.06 A 0.99,0.97 -7.9 0 1 301.06,414.51 L 300.85,414.03 A 0.38,0.36 59.4 0 0 300.29,413.87 ZM 295.61,413.07 Q 300.16,413.76 300.98,408.40 A 0.45,0.45 3.1 0 0 300.51,407.88 Q 297.57,408.07 295.34,408.84 Q 294.27,409.21 293.74,409.85 Q 292.86,410.92 293.58,411.97 Q 294.20,412.86 295.61,413.07 Z"/>
<path fill="#000000" d="M 310.43,401.86 Q 314.35,398.54 318.14,402.15 A 0.64,0.61 49.0 0 0 318.91,402.22 Q 319.77,401.62 320.66,401.09 Q 321.60,400.52 322.59,400.43 Q 328.96,399.83 329.00,406.50 Q 329.04,412.22 329.16,414.43 A 0.53,0.47 88.3 0 1 328.69,414.99 L 327.56,414.99 A 0.57,0.51 89.4 0 1 327.05,414.43 Q 326.95,410.34 326.91,406.25 Q 326.89,403.76 325.16,402.78 Q 323.64,401.93 321.81,402.69 Q 319.50,403.64 319.50,406.25 Q 319.50,410.25 319.50,414.25 A 0.81,0.69 81.3 0 1 319.05,414.98 Q 318.28,415.27 317.62,414.82 A 0.97,0.71 -74.0 0 1 317.31,413.99 Q 317.59,411.32 317.31,406.44 Q 317.16,403.67 315.31,402.72 Q 313.52,401.80 311.76,402.96 Q 309.97,404.12 309.98,406.75 Q 310.00,410.38 310.00,414.00 A 1.08,0.83 76.9 0 1 309.62,414.83 Q 308.97,415.27 308.19,414.97 A 0.79,0.68 -80.9 0 1 307.75,414.26 L 307.75,401.50 A 0.90,0.80 77.2 0 1 308.17,400.74 Q 309.67,399.92 310.00,401.69 A 0.27,0.26 65.4 0 0 310.43,401.86 Z"/>
<path fill="#000000" d="M 333.86,411.54 Q 331.61,408.06 334.00,403.75 Q 335.30,401.42 337.85,400.66 Q 340.18,399.98 342.46,400.88 Q 346.37,402.43 346.77,407.46 A 0.97,0.96 87.8 0 1 345.81,408.50 L 335.88,408.50 A 0.80,0.79 -12.8 0 0 335.16,409.64 Q 338.28,416.04 344.11,411.56 A 1.07,0.87 -52.1 0 1 344.98,411.36 Q 346.59,411.85 345.19,413.19 Q 342.20,416.03 338.73,415.11 Q 335.65,414.29 333.86,411.54 ZM 342.80,403.46 Q 338.48,400.59 335.33,405.49 Q 334.53,406.74 336.00,406.74 L 343.94,406.70 A 0.49,0.48 -2.2 0 0 344.43,406.18 Q 344.31,404.47 342.80,403.46 Z"/>
<rect fill="#f8f9f9" x="-7.50" y="-7.50" transform="translate(247.50,430.50) rotate(-0.1)" width="15.00" height="15.00" rx="0.42"/>
<rect fill="#f8f9f9" x="-7.50" y="-7.50" transform="translate(890.50,433.50) rotate(-0.1)" width="15.00" height="15.00" rx="0.64"/>
<path fill="#000000" d="M 243.25,478.71 L 249.00,478.71 L 346.98,478.75 A 0.71,0.70 -0.0 0 1 347.69,479.45 L 347.69,505.19 A 0.51,0.50 -0.0 0 1 347.18,505.69 L 261.19,505.75 A 0.52,0.51 90.0 0 0 260.68,506.27 L 260.75,532.99 A 0.51,0.51 0.0 0 0 261.26,533.50 L 343.07,533.68 A 0.52,0.51 0.6 0 1 343.58,534.19 L 343.58,560.06 A 0.52,0.50 -0.0 0 1 343.06,560.56 L 261.18,560.50 A 0.68,0.68 0.0 0 0 260.50,561.18 L 260.56,609.49 A 0.51,0.50 -0.6 0 1 260.05,610.00 L 248.75,610.04 L 243.25,610.29 L 231.50,610.05 A 1.02,0.96 0.6 0 1 230.50,609.09 L 230.50,479.42 A 0.67,0.67 -89.8 0 1 231.17,478.75 L 243.25,478.71 Z"/>
<path fill="#000000" d="M 541.07,547.46 Q 538.45,537.11 527.75,534.73 Q 513.77,531.63 499.83,534.89 Q 495.34,535.94 491.58,538.58 Q 487.86,541.19 487.45,546.33 A 0.72,0.72 -87.9 0 1 486.73,547.00 L 459.06,547.00 A 0.81,0.81 -89.0 0 1 458.25,546.16 Q 458.99,526.23 476.18,516.42 Q 487.06,510.21 500.00,508.50 Q 509.19,507.29 517.25,507.36 Q 527.73,507.46 537.57,510.35 Q 548.37,513.53 555.42,519.08 Q 564.90,526.53 568.44,538.19 Q 570.23,544.12 570.48,556.99 Q 570.69,568.69 570.50,576.00 Q 570.36,581.43 574.08,583.45 Q 575.87,584.42 581.11,584.61 Q 584.46,584.73 587.81,584.91 A 0.54,0.54 1.1 0 1 588.32,585.44 L 588.50,609.25 A 0.75,0.75 -45.0 0 1 587.75,610.00 Q 579.50,610.00 572.25,610.03 Q 563.09,610.07 556.06,607.19 Q 549.96,604.68 545.72,598.48 A 0.45,0.43 51.7 0 0 545.07,598.39 Q 536.22,606.12 526.44,608.94 Q 502.03,615.97 478.75,609.00 Q 473.32,607.37 468.42,603.70 Q 463.44,599.97 460.80,595.21 Q 456.25,587.01 457.98,577.00 Q 458.98,571.21 462.33,566.76 Q 465.20,562.95 470.58,559.79 Q 478.55,555.12 488.00,553.99 Q 514.33,550.85 540.69,547.99 A 0.43,0.43 -9.8 0 0 541.07,547.46 ZM 492.05,587.42 Q 495.81,588.83 500.75,589.00 Q 515.65,589.51 527.75,585.00 Q 534.42,582.51 539.75,576.82 Q 541.33,575.12 541.51,573.03 Q 541.70,570.79 541.28,568.55 A 0.54,0.53 -8.6 0 0 540.69,568.12 Q 519.17,570.45 497.69,573.19 Q 494.44,573.60 492.87,574.09 Q 489.93,575.01 488.56,576.56 Q 485.18,580.38 487.09,583.70 Q 488.44,586.06 492.05,587.42 Z"/>
<path fill="#000000" d="M 631.55,518.96 Q 631.59,519.44 631.97,519.14 Q 643.46,509.87 657.51,507.97 Q 666.40,506.77 675.50,508.01 Q 684.54,509.25 692.89,513.41 Q 700.73,517.32 705.76,524.37 A 0.76,0.76 48.3 0 0 706.94,524.44 Q 719.19,511.09 737.01,508.33 Q 749.35,506.43 761.28,508.73 Q 772.13,510.83 779.74,516.00 Q 791.60,524.06 796.00,538.50 Q 799.01,548.37 799.00,560.75 Q 799.00,584.75 799.00,609.44 A 0.56,0.56 45.0 0 1 798.44,610.00 L 770.79,610.00 A 0.81,0.80 90.0 0 1 769.99,609.19 Q 770.16,584.73 769.84,561.20 Q 769.74,553.67 768.31,549.49 Q 762.69,533.00 742.75,534.03 Q 724.80,534.95 715.81,550.14 A 1.92,1.67 63.6 0 0 715.57,551.06 L 715.75,609.42 A 0.58,0.58 -45.0 0 1 715.17,610.00 L 687.63,610.00 A 0.88,0.88 -45.0 0 1 686.75,609.12 Q 686.75,585.25 686.75,561.00 Q 686.75,554.43 684.91,549.00 Q 682.87,543.00 678.30,539.25 Q 671.23,533.44 660.69,533.94 Q 642.15,534.81 633.07,549.88 A 1.84,1.79 61.3 0 0 632.81,550.82 L 632.81,609.32 A 0.51,0.51 -0.0 0 1 632.30,609.83 L 604.44,609.83 A 0.52,0.51 -90.0 0 1 603.93,609.31 L 603.75,510.61 A 0.80,0.80 89.8 0 1 604.55,509.81 L 630.19,509.81 A 0.55,0.55 -2.9 0 1 630.74,510.30 L 631.55,518.96 Z"/>
<path fill="#000000" d="M 888.00,507.79 Q 888.52,518.76 888.50,529.75 Q 888.50,531.93 888.04,532.75 Q 874.07,529.59 861.04,535.33 Q 853.19,538.80 850.07,546.57 A 0.68,0.68 -79.1 0 0 850.70,547.50 L 887.96,547.50 Q 888.50,547.83 888.50,549.00 Q 888.50,558.00 888.50,567.00 Q 888.50,568.20 888.00,568.54 L 849.34,568.50 A 0.41,0.41 -6.7 0 0 848.94,569.00 Q 852.00,581.95 864.50,585.75 Q 875.23,589.01 888.00,587.21 Q 888.75,587.37 888.75,588.75 Q 888.75,599.75 888.75,610.75 Q 888.75,611.78 888.21,612.25 Q 871.69,613.12 857.75,610.00 Q 850.03,608.27 842.74,604.09 Q 835.39,599.88 830.37,594.08 Q 819.76,581.82 819.36,564.50 Q 819.25,559.88 819.47,555.26 Q 820.86,525.46 846.81,513.81 Q 865.38,505.48 888.00,507.79 Z"/>
<path fill="#000000" d="M 894.50,508.46 Q 895.71,508.91 896.25,509.00 Q 911.28,511.42 922.38,520.87 Q 928.49,526.07 932.26,532.78 Q 936.36,540.07 937.25,547.75 Q 938.35,557.22 937.96,567.73 A 0.54,0.53 -88.9 0 1 937.43,568.25 L 896.50,568.46 Q 894.60,568.67 894.56,567.00 Q 894.28,557.24 894.79,547.50 L 907.00,547.57 A 0.34,0.34 78.5 0 0 907.31,547.10 Q 903.47,538.06 894.71,534.25 L 894.50,508.46 Z"/>
<path fill="#000000" d="M 398.23,518.66 Q 410.92,510.29 426.25,509.87 Q 436.12,509.60 446.85,509.76 A 0.66,0.66 0.4 0 1 447.50,510.42 L 447.50,534.67 A 0.59,0.58 0.5 0 1 446.90,535.25 Q 436.62,535.11 426.50,535.50 Q 417.79,535.83 415.48,536.12 Q 405.50,537.38 399.07,544.87 A 1.38,1.30 66.8 0 0 398.75,545.75 L 398.81,609.31 A 0.52,0.51 89.4 0 1 398.31,609.83 L 370.87,609.99 A 0.88,0.86 89.7 0 1 370.00,609.11 L 370.00,510.44 A 0.69,0.68 -90.0 0 1 370.68,509.75 L 396.43,509.81 A 0.56,0.55 87.1 0 1 396.98,510.31 L 397.76,518.43 A 0.31,0.30 70.6 0 0 398.23,518.66 Z"/>
<path fill="#000000" d="M 895.04,611.25 L 894.75,586.04 Q 900.88,584.12 903.81,581.56 Q 906.03,579.64 907.52,576.17 A 0.70,0.69 11.5 0 1 908.16,575.75 L 936.97,575.75 A 0.80,0.80 5.3 0 1 937.76,576.70 Q 933.74,598.17 913.56,606.31 Q 903.83,610.24 895.04,611.25 Z"/>
<path fill="#4f89e2" d="M 0.00,630.69 Q 0.00,628.06 0.00,625.44 Q 6.01,624.57 12.07,625.14 A 0.86,0.79 -7.0 0 1 12.77,625.64 Q 13.11,626.47 13.09,627.38 Q 13.08,628.33 13.13,629.11 Q 13.28,631.26 11.15,631.13 Q 9.46,631.03 9.35,631.04 Q 4.66,631.19 0.00,630.69 Z"/>
<rect fill="#4f89e2" x="43.00" y="625.00" width="48.00" height="6.00" rx="0.59"/>
<rect fill="#4f89e2" x="120.99" y="625.00" width="48.00" height="6.00" rx="0.70"/>
<rect fill="#f8f9f9" x="-7.50" y="-7.50" transform="translate(889.51,667.50) rotate(-0.1)" width="15.00" height="15.00" rx="0.52"/>
<rect fill="#f8f9f9" x="240.00" y="664.00" width="15.00" height="15.00" rx="0.31"/>
</svg>
