<svg width="345" height="128" viewBox="0 0 345 128" fill="none" xmlns="http://www.w3.org/2000/svg">
<rect x="16.34" y="18.1" width="300.492" height="102.414" stroke="#0D99FF" stroke-width="2.12245"/>
<path d="M64.0477 38.3137V52.9786H22.9674V62.9098H62.0915V77.5747H22.9674V99.2007H5.65497V38.3137H64.0477Z" fill="#222222"/>
<path d="M110.518 52.5145V66.344H99.2693C93.9876 66.344 90.2056 67.4578 87.9233 69.6854V99.2007H71.2956V52.5145H86.8474L87.2387 56.4127C91.0207 53.8139 95.7808 52.5145 101.519 52.5145H110.518Z" fill="#222222"/>
<path d="M177.234 85.2784V99.2007H167.746C161.943 99.2007 157.737 97.53 155.129 94.1886C152.586 96.1687 149.521 97.7156 145.935 98.8294C142.414 99.8813 138.501 100.407 134.198 100.407C127.481 100.407 122.232 99.1697 118.45 96.6947C114.668 94.1577 112.777 90.6307 112.777 86.1137C112.777 82.3392 114.179 79.3382 116.983 77.1106C119.787 74.8211 123.895 73.398 129.307 72.8411L152.39 70.4279C151.999 68.5097 150.89 67.0865 149.065 66.1584C147.239 65.2302 144.663 64.7661 141.338 64.7661C137.751 64.7661 134.98 65.1993 133.024 66.0655C131.068 66.8699 130.089 68.0456 130.089 69.5925V69.871H113.168V69.5925C113.168 65.8799 114.309 62.6623 116.592 59.9397C118.939 57.1553 122.232 55.0205 126.471 53.5355C130.774 52.0504 135.795 51.3079 141.533 51.3079C150.271 51.3079 157.085 53.1642 161.976 56.8768C166.866 60.5894 169.311 65.7562 169.311 72.377V82.4011C169.311 84.3193 170.518 85.2784 172.93 85.2784H177.234ZM136.349 88.6197C139.675 88.6197 142.805 88.1247 145.739 87.1347C148.739 86.1446 151.021 84.8761 152.586 83.3292V79.9879L134.1 82.0298C130.97 82.4011 129.405 83.5149 129.405 85.3712C129.405 87.5369 131.72 88.6197 136.349 88.6197Z" fill="#222222"/>
<path d="M253.215 51.3079C261.627 51.3079 267.984 53.4426 272.288 57.7122C276.657 61.9817 278.841 68.2622 278.841 76.5537V99.2007H262.214V76.5537C262.214 73.0886 261.268 70.4279 259.377 68.5716C257.486 66.7153 254.813 65.7871 251.357 65.7871C248.618 65.7871 246.14 66.3749 243.923 67.5506C241.706 68.7263 240.011 70.3351 238.837 72.377C238.967 74.2333 239.033 75.6255 239.033 76.5537V99.2007H222.307V76.5537C222.307 73.0886 221.362 70.4279 219.471 68.5716C217.645 66.7153 215.004 65.7871 211.548 65.7871C208.809 65.7871 206.364 66.3749 204.212 67.5506C202.06 68.6644 200.398 70.2422 199.224 72.2842V99.2007H182.498V52.5145H198.05L198.441 56.4127C202.81 53.0095 208.125 51.3079 214.384 51.3079C223.318 51.3079 229.838 53.8758 233.946 59.0116C238.837 53.8758 245.26 51.3079 253.215 51.3079Z" fill="#222222"/>
<path d="M345 80.0807H302.942C303.333 82.5558 304.604 84.443 306.756 85.7424C308.973 87.0418 311.908 87.6916 315.559 87.6916C318.885 87.6916 321.591 87.3203 323.677 86.5778C325.829 85.8352 327.133 84.8143 327.59 83.5149H344.902C343.989 89.0219 341.022 93.2295 336.001 96.1378C331.046 98.9841 324.264 100.407 315.657 100.407C309.528 100.407 304.213 99.4791 299.714 97.6228C295.215 95.7046 291.759 92.982 289.346 89.455C286.999 85.8662 285.825 81.6585 285.825 76.8321V75.1615C285.825 70.2732 287.031 66.0346 289.444 62.4457C291.856 58.8569 295.28 56.1034 299.714 54.1852C304.213 52.267 309.528 51.3079 315.657 51.3079C325.047 51.3079 332.285 53.3808 337.371 57.5265C342.457 61.6723 345 67.6125 345 75.3471V80.0807ZM315.559 63.6523C312.234 63.6523 309.528 64.2092 307.441 65.323C305.354 66.3749 303.952 67.9219 303.235 69.9638H327.688C326.97 67.9219 325.568 66.3749 323.482 65.323C321.395 64.2092 318.754 63.6523 315.559 63.6523Z" fill="#222222"/>
<rect x="310.714" y="11.6296" width="13.1327" height="12.1315" fill="#D9DDDE" stroke="#0C8AE6" stroke-width="2.12245"/>
<rect x="310.714" y="114.679" width="13.1327" height="12.1315" fill="#D9DDDE" stroke="#0C8AE6" stroke-width="2.12245"/>
<rect x="8.94703" y="114.807" width="13.1327" height="12.1315" fill="#D9DDDE" stroke="#0C8AE6" stroke-width="2.12245"/>
<rect x="8.94703" y="11.653" width="13.1327" height="12.1315" fill="#D9DDDE" stroke="#0C8AE6" stroke-width="2.12245"/>
<mask id="path-7-inside-1_2_18" fill="white">
<path d="M0 24.8676H317.893V113.746H0V24.8676Z"/>
</mask>
<path d="M315.771 24.8676V113.746H320.016V24.8676H315.771Z" fill="#0C8AE6" mask="url(#path-7-inside-1_2_18)"/>
<path d="M44.85 5.31814H40.5331V12.9875H38.683V5.31814H35.349V3.75069H38.683V2.89232C38.683 1.99664 38.9528 1.29377 39.4924 0.783726C40.0449 0.261242 40.7965 0 41.7473 0H44.0791V1.58611H41.9785C41.516 1.58611 41.1563 1.70429 40.8993 1.94066C40.6552 2.17702 40.5331 2.52534 40.5331 2.98563V3.75069H44.85V5.31814Z" fill="#222222"/>
<path d="M53.4838 3.75069V5.31814H51.3639C50.6701 5.31814 50.0534 5.43011 49.5138 5.65403C48.987 5.87795 48.5759 6.19517 48.2804 6.6057V12.9875H46.4303V3.75069H48.1648L48.2226 4.81432C48.6466 4.466 49.1476 4.20476 49.7258 4.03059C50.304 3.84399 50.9335 3.75069 51.6144 3.75069H53.4838Z" fill="#222222"/>
<path d="M66.6677 11.4014V12.9875H65.3958C64.7662 12.9875 64.2395 12.8693 63.8155 12.6329C63.3915 12.3966 63.096 12.0607 62.929 11.6253C62.4151 12.1602 61.7984 12.5583 61.0789 12.8195C60.3594 13.0808 59.5114 13.2114 58.535 13.2114C57.1603 13.2114 56.1003 12.9812 55.3551 12.521C54.61 12.0482 54.2374 11.3765 54.2374 10.5057C54.2374 9.75926 54.5264 9.16214 55.1046 8.71429C55.6828 8.26645 56.5307 7.98655 57.6485 7.87459L62.7941 7.3521C62.7555 6.65546 62.4536 6.12675 61.8883 5.76599C61.323 5.40523 60.5136 5.22484 59.46 5.22484C58.4451 5.22484 57.6356 5.39279 57.0318 5.72867C56.4279 6.06455 56.126 6.51239 56.126 7.0722V7.14684H54.2952V7.0722C54.2952 6.37555 54.5072 5.75977 54.9312 5.22484C55.368 4.67748 55.9783 4.26074 56.762 3.97461C57.5457 3.67605 58.4515 3.52677 59.4793 3.52677C61.111 3.52677 62.3765 3.87509 63.2759 4.57174C64.1752 5.26838 64.6249 6.24493 64.6249 7.50138V10.375C64.6249 10.6985 64.7277 10.9535 64.9332 11.1401C65.1388 11.3143 65.4343 11.4014 65.8198 11.4014H66.6677ZM58.4965 11.6253C59.5371 11.6253 60.4301 11.4698 61.1752 11.1588C61.9204 10.8353 62.46 10.3813 62.7941 9.79658V8.80759L58.0532 9.29276C57.3851 9.35496 56.884 9.48558 56.55 9.68462C56.2288 9.88366 56.0682 10.1573 56.0682 10.5057C56.0682 11.2521 56.8776 11.6253 58.4965 11.6253Z" fill="#222222"/>
<path d="M81.5807 3.52677C83.1353 3.52677 84.3237 3.93107 85.146 4.73968C85.9682 5.53585 86.3794 6.69278 86.3794 8.21047V12.9875H84.5293V8.21047C84.5293 7.2277 84.2659 6.47507 83.7391 5.95259C83.2123 5.43011 82.4607 5.16886 81.4843 5.16886C80.7391 5.16886 80.0453 5.34302 79.4029 5.69135C78.7734 6.03967 78.2916 6.49995 77.9576 7.0722C78.0218 7.47028 78.0539 7.84971 78.0539 8.21047V12.9875H76.2231V8.21047C76.2231 7.24014 75.9597 6.49373 75.4329 5.97125C74.9062 5.43633 74.1546 5.16886 73.1781 5.16886C72.433 5.16886 71.752 5.34302 71.1353 5.69135C70.5186 6.02723 70.0561 6.48129 69.7477 7.05354V12.9875H67.9169V3.75069H69.6321L69.6899 4.94494C70.1525 4.48466 70.6921 4.13633 71.3088 3.89997C71.9383 3.65117 72.6193 3.52677 73.3516 3.52677C74.3023 3.52677 75.1182 3.68849 75.7991 4.01193C76.48 4.32294 77.0068 4.78322 77.3794 5.39279C77.8805 4.79566 78.4843 4.33538 79.191 4.01193C79.9104 3.68849 80.707 3.52677 81.5807 3.52677Z" fill="#222222"/>
<path d="M99.3763 8.95687H90.1836C90.2478 9.76548 90.6076 10.4061 91.2628 10.8789C91.9181 11.3392 92.7917 11.5693 93.8838 11.5693C94.8988 11.5693 95.721 11.4076 96.3506 11.0841C96.993 10.7483 97.3399 10.3066 97.3913 9.75926H99.3763C99.2735 10.8416 98.7339 11.6875 97.7574 12.297C96.7938 12.9066 95.5026 13.2114 93.8838 13.2114C92.7403 13.2114 91.7446 13.0248 90.8966 12.6516C90.0487 12.2659 89.3934 11.7248 88.9309 11.0282C88.4812 10.3315 88.2564 9.51668 88.2564 8.58367V8.19181C88.2564 7.24636 88.4812 6.42531 88.9309 5.72867C89.3934 5.01958 90.0487 4.47844 90.8966 4.10523C91.7446 3.71959 92.7403 3.52677 93.8838 3.52677C95.5926 3.52677 96.9352 3.93729 97.9116 4.75834C98.888 5.56695 99.3763 6.68656 99.3763 8.11717V8.95687ZM93.8838 5.16886C92.856 5.16886 92.0208 5.37413 91.3784 5.78465C90.7489 6.18273 90.3635 6.74254 90.2221 7.46406H97.4105C97.2949 6.74254 96.9287 6.18273 96.312 5.78465C95.6953 5.37413 94.8859 5.16886 93.8838 5.16886Z" fill="#222222"/>
<path d="M114.53 12.9875H112.641V3.50811C112.024 3.84399 111.221 4.01193 110.232 4.01193H108.054V2.27654H110.078C110.951 2.27654 111.594 2.15214 112.005 1.90334C112.429 1.65453 112.641 1.26889 112.641 0.746407H114.53V12.9875Z" fill="#222222"/>
</svg>
