<svg width="584" height="204" viewBox="0 0 584 204" fill="none" xmlns="http://www.w3.org/2000/svg">
<rect x="26.9244" y="28.2167" width="510.13" height="164.482" stroke="#0D99FF" stroke-width="2.12245"/>
<path d="M108.417 61.0625V84.4346H38.8781V100.263H105.106V123.635H38.8781V158.101H9.57248V61.0625H108.417Z" fill="#222222"/>
<path d="M187.079 83.695V105.736H168.039C159.098 105.736 152.696 107.511 148.833 111.061V158.101H120.686V83.695H147.011L147.674 89.9078C154.076 85.7659 162.133 83.695 171.847 83.695H187.079Z" fill="#222222"/>
<path d="M300.014 135.912V158.101H283.953C274.13 158.101 267.01 155.438 262.595 150.113C258.29 153.269 253.102 155.734 247.032 157.509C241.071 159.186 234.448 160.024 227.163 160.024C215.794 160.024 206.909 158.052 200.507 154.107C194.105 150.064 190.904 144.443 190.904 137.244C190.904 131.228 193.277 126.445 198.023 122.895C202.77 119.246 209.723 116.978 218.885 116.09L257.959 112.244C257.297 109.187 255.42 106.919 252.33 105.44C249.239 103.961 244.879 103.221 239.25 103.221C233.179 103.221 228.488 103.911 225.177 105.292C221.865 106.574 220.209 108.448 220.209 110.913V111.357H191.566V110.913C191.566 104.996 193.498 99.8681 197.361 95.5289C201.335 91.0912 206.909 87.6889 214.083 85.3221C221.368 82.9553 229.868 81.772 239.581 81.772C254.372 81.772 265.906 84.7304 274.185 90.6474C282.463 96.5644 286.602 104.799 286.602 115.351V131.327C286.602 134.384 288.645 135.912 292.729 135.912H300.014ZM230.806 141.238C236.435 141.238 241.733 140.449 246.7 138.871C251.778 137.293 255.641 135.271 258.29 132.806V127.481L226.998 130.735C221.7 131.327 219.05 133.102 219.05 136.06C219.05 139.512 222.969 141.238 230.806 141.238Z" fill="#222222"/>
<path d="M428.631 81.772C442.87 81.772 453.632 85.1742 460.917 91.9787C468.312 98.7833 472.01 108.793 472.01 122.007V158.101H443.863V122.007C443.863 116.485 442.262 112.244 439.061 109.286C435.86 106.327 431.335 104.848 425.485 104.848C420.849 104.848 416.655 105.785 412.902 107.659C409.149 109.532 406.279 112.097 404.292 115.351C404.513 118.309 404.623 120.528 404.623 122.007V158.101H376.311V122.007C376.311 116.485 374.71 112.244 371.509 109.286C368.419 106.327 363.948 104.848 358.098 104.848C353.462 104.848 349.323 105.785 345.681 107.659C342.038 109.434 339.224 111.949 337.237 115.203V158.101H308.924V83.695H335.25L335.912 89.9078C343.308 84.4839 352.304 81.772 362.9 81.772C378.022 81.772 389.06 85.8645 396.014 94.0497C404.292 85.8645 415.164 81.772 428.631 81.772Z" fill="#222222"/>
<path d="M584 127.629H512.806C513.468 131.573 515.62 134.581 519.263 136.652C523.016 138.723 527.983 139.758 534.164 139.758C539.793 139.758 544.374 139.167 547.906 137.983C551.549 136.8 553.756 135.173 554.529 133.102H583.834C582.289 141.879 577.267 148.585 568.768 153.22C560.379 157.756 548.899 160.024 534.329 160.024C523.954 160.024 514.958 158.545 507.342 155.586C499.726 152.529 493.875 148.19 489.791 142.569C485.818 136.849 483.831 130.143 483.831 122.451V119.789C483.831 111.998 485.873 105.243 489.957 99.5229C494.041 93.8032 499.836 89.4147 507.342 86.3576C514.958 83.3005 523.954 81.772 534.329 81.772C550.224 81.772 562.476 85.0756 571.086 91.6829C579.695 98.2902 584 107.757 584 120.084V127.629ZM534.164 101.446C528.535 101.446 523.954 102.333 520.422 104.109C516.89 105.785 514.516 108.25 513.302 111.505H554.694C553.48 108.25 551.107 105.785 547.575 104.109C544.043 102.333 539.572 101.446 534.164 101.446Z" fill="#222222"/>
<rect x="525.227" y="17.9045" width="23.7007" height="20.5947" fill="#D9DDDE" stroke="#0C8AE6" stroke-width="2.12245"/>
<rect x="525.227" y="182.14" width="23.7007" height="20.5947" fill="#D9DDDE" stroke="#0C8AE6" stroke-width="2.12245"/>
<rect x="14.4099" y="182.344" width="23.7007" height="20.5947" fill="#D9DDDE" stroke="#0C8AE6" stroke-width="2.12245"/>
<rect x="14.4099" y="17.9418" width="23.7007" height="20.5947" fill="#D9DDDE" stroke="#0C8AE6" stroke-width="2.12245"/>
<mask id="path-7-inside-1_0_5" fill="white">
<path d="M0 39.6328H538.115V181.283H0V39.6328Z"/>
</mask>
<path d="M535.992 39.6328V181.283H540.237V39.6328H535.992Z" fill="#0C8AE6" mask="url(#path-7-inside-1_0_5)"/>
<path d="M75.9201 8.47579H68.6126V20.6988H65.4809V8.47579H59.8372V5.97766H65.4809V4.60964C65.4809 3.18214 65.9376 2.06195 66.851 1.24906C67.7862 0.416355 69.0585 0 70.6678 0H74.6152V2.52787H71.0593C70.2764 2.52787 69.6674 2.71622 69.2325 3.09292C68.8192 3.46962 68.6126 4.02476 68.6126 4.75834V5.97766H75.9201V8.47579Z" fill="#222222"/>
<path d="M90.5349 5.97766V8.47579H86.9465C85.7721 8.47579 84.7281 8.65423 83.8147 9.01111C82.923 9.36798 82.2271 9.87356 81.7269 10.5278V20.6988H78.5951V5.97766H81.5311L81.629 7.67282C82.3467 7.11768 83.1949 6.70133 84.1736 6.42376C85.1522 6.12636 86.2179 5.97766 87.3706 5.97766H90.5349Z" fill="#222222"/>
<path d="M112.852 18.1709V20.6988H110.699C109.633 20.6988 108.742 20.5104 108.024 20.1337C107.306 19.757 106.806 19.2217 106.523 18.5278C105.653 19.3803 104.609 20.0148 103.392 20.4311C102.174 20.8475 100.738 21.0557 99.0854 21.0557C96.7583 21.0557 94.964 20.6889 93.7026 19.9553C92.4412 19.2019 91.8105 18.1313 91.8105 16.7434C91.8105 15.5538 92.2999 14.6022 93.2785 13.8884C94.2572 13.1747 95.6926 12.7286 97.5847 12.5501L106.295 11.7174C106.23 10.6071 105.719 9.76451 104.762 9.18954C103.805 8.61458 102.435 8.3271 100.651 8.3271C98.9331 8.3271 97.563 8.59475 96.5408 9.13006C95.5186 9.66538 95.0075 10.3791 95.0075 11.2713V11.3903H91.9084V11.2713C91.9084 10.161 92.2672 9.17963 92.9849 8.3271C93.7244 7.45473 94.7574 6.79055 96.0841 6.33454C97.4107 5.85871 98.944 5.62079 100.684 5.62079C103.446 5.62079 105.588 6.17593 107.11 7.28621C108.633 8.39649 109.394 9.95286 109.394 11.9553V16.5352C109.394 17.0507 109.568 17.4572 109.916 17.7546C110.264 18.0321 110.764 18.1709 111.417 18.1709H112.852ZM99.0201 18.5278C100.782 18.5278 102.293 18.28 103.555 17.7843C104.816 17.2688 105.729 16.5451 106.295 15.6133V14.0371L98.2698 14.8103C97.1389 14.9095 96.2907 15.1176 95.7252 15.4349C95.1815 15.7521 94.9097 16.1883 94.9097 16.7434C94.9097 17.933 96.2798 18.5278 99.0201 18.5278Z" fill="#222222"/>
<path d="M138.096 5.62079C140.728 5.62079 142.739 6.26515 144.131 7.55386C145.523 8.82276 146.219 10.6666 146.219 13.0854V20.6988H143.087V13.0854C143.087 11.5191 142.641 10.3197 141.75 9.48694C140.858 8.65423 139.586 8.23788 137.933 8.23788C136.671 8.23788 135.497 8.51545 134.41 9.07059C133.344 9.62573 132.528 10.3593 131.963 11.2713C132.072 11.9058 132.126 12.5105 132.126 13.0854V20.6988H129.027V13.0854C129.027 11.539 128.581 10.3494 127.689 9.51668C126.798 8.66414 125.525 8.23788 123.873 8.23788C122.611 8.23788 121.459 8.51545 120.415 9.07059C119.371 9.6059 118.588 10.3296 118.066 11.2416V20.6988H114.967V5.97766H117.87L117.968 7.881C118.751 7.14742 119.664 6.59228 120.708 6.21558C121.774 5.81905 122.927 5.62079 124.166 5.62079C125.776 5.62079 127.157 5.87853 128.309 6.39402C129.462 6.88968 130.354 7.62326 130.984 8.59475C131.832 7.64308 132.855 6.90951 134.051 6.39402C135.269 5.87853 136.617 5.62079 138.096 5.62079Z" fill="#222222"/>
<path d="M168.22 14.275H152.659C152.767 15.5637 153.376 16.5848 154.485 17.3382C155.595 18.0718 157.074 18.4386 158.922 18.4386C160.64 18.4386 162.032 18.1808 163.098 17.6653C164.185 17.13 164.772 16.4262 164.859 15.5538H168.22C168.046 17.2787 167.132 18.6269 165.479 19.5984C163.848 20.5699 161.662 21.0557 158.922 21.0557C156.987 21.0557 155.301 20.7583 153.866 20.1635C152.43 19.5488 151.321 18.6864 150.538 17.5761C149.777 16.4658 149.396 15.1672 149.396 13.6802V13.0557C149.396 11.5489 149.777 10.2403 150.538 9.13006C151.321 7.99996 152.43 7.13751 153.866 6.54272C155.301 5.9281 156.987 5.62079 158.922 5.62079C161.815 5.62079 164.087 6.27506 165.74 7.58361C167.393 8.87232 168.22 10.6567 168.22 12.9367V14.275ZM158.922 8.23788C157.182 8.23788 155.769 8.56501 154.681 9.21928C153.616 9.85373 152.963 10.7459 152.724 11.8959H164.892C164.696 10.7459 164.077 9.85373 163.033 9.21928C161.989 8.56501 160.619 8.23788 158.922 8.23788Z" fill="#222222"/>
<path d="M193.87 20.6988H190.673V5.59105C189.629 6.12636 188.27 6.39402 186.595 6.39402H182.909V3.62824H186.334C187.813 3.62824 188.901 3.42997 189.597 3.03344C190.314 2.63691 190.673 2.02229 190.673 1.18959H193.87V20.6988Z" fill="#222222"/>
</svg>
